%TF.GenerationSoftware,KiCad,Pcbnew,9.0.7*%
%TF.CreationDate,2026-02-25T00:56:48-06:00*%
%TF.ProjectId,Buttons PCB,42757474-6f6e-4732-9050-43422e6b6963,rev?*%
%TF.SameCoordinates,Original*%
%TF.FileFunction,Legend,Top*%
%TF.FilePolarity,Positive*%
%FSLAX46Y46*%
G04 Gerber Fmt 4.6, Leading zero omitted, Abs format (unit mm)*
G04 Created by KiCad (PCBNEW 9.0.7) date 2026-02-25 00:56:48*
%MOMM*%
%LPD*%
G01*
G04 APERTURE LIST*
%ADD10C,0.150000*%
%ADD11C,0.120000*%
G04 APERTURE END LIST*
D10*
X130224819Y-94333333D02*
X130939104Y-94333333D01*
X130939104Y-94333333D02*
X131081961Y-94380952D01*
X131081961Y-94380952D02*
X131177200Y-94476190D01*
X131177200Y-94476190D02*
X131224819Y-94619047D01*
X131224819Y-94619047D02*
X131224819Y-94714285D01*
X130653390Y-93714285D02*
X130605771Y-93809523D01*
X130605771Y-93809523D02*
X130558152Y-93857142D01*
X130558152Y-93857142D02*
X130462914Y-93904761D01*
X130462914Y-93904761D02*
X130415295Y-93904761D01*
X130415295Y-93904761D02*
X130320057Y-93857142D01*
X130320057Y-93857142D02*
X130272438Y-93809523D01*
X130272438Y-93809523D02*
X130224819Y-93714285D01*
X130224819Y-93714285D02*
X130224819Y-93523809D01*
X130224819Y-93523809D02*
X130272438Y-93428571D01*
X130272438Y-93428571D02*
X130320057Y-93380952D01*
X130320057Y-93380952D02*
X130415295Y-93333333D01*
X130415295Y-93333333D02*
X130462914Y-93333333D01*
X130462914Y-93333333D02*
X130558152Y-93380952D01*
X130558152Y-93380952D02*
X130605771Y-93428571D01*
X130605771Y-93428571D02*
X130653390Y-93523809D01*
X130653390Y-93523809D02*
X130653390Y-93714285D01*
X130653390Y-93714285D02*
X130701009Y-93809523D01*
X130701009Y-93809523D02*
X130748628Y-93857142D01*
X130748628Y-93857142D02*
X130843866Y-93904761D01*
X130843866Y-93904761D02*
X131034342Y-93904761D01*
X131034342Y-93904761D02*
X131129580Y-93857142D01*
X131129580Y-93857142D02*
X131177200Y-93809523D01*
X131177200Y-93809523D02*
X131224819Y-93714285D01*
X131224819Y-93714285D02*
X131224819Y-93523809D01*
X131224819Y-93523809D02*
X131177200Y-93428571D01*
X131177200Y-93428571D02*
X131129580Y-93380952D01*
X131129580Y-93380952D02*
X131034342Y-93333333D01*
X131034342Y-93333333D02*
X130843866Y-93333333D01*
X130843866Y-93333333D02*
X130748628Y-93380952D01*
X130748628Y-93380952D02*
X130701009Y-93428571D01*
X130701009Y-93428571D02*
X130653390Y-93523809D01*
X139126666Y-83634819D02*
X139126666Y-84349104D01*
X139126666Y-84349104D02*
X139079047Y-84491961D01*
X139079047Y-84491961D02*
X138983809Y-84587200D01*
X138983809Y-84587200D02*
X138840952Y-84634819D01*
X138840952Y-84634819D02*
X138745714Y-84634819D01*
X139507619Y-83634819D02*
X140174285Y-83634819D01*
X140174285Y-83634819D02*
X139745714Y-84634819D01*
X106896666Y-87734819D02*
X106896666Y-88449104D01*
X106896666Y-88449104D02*
X106849047Y-88591961D01*
X106849047Y-88591961D02*
X106753809Y-88687200D01*
X106753809Y-88687200D02*
X106610952Y-88734819D01*
X106610952Y-88734819D02*
X106515714Y-88734819D01*
X107849047Y-87734819D02*
X107372857Y-87734819D01*
X107372857Y-87734819D02*
X107325238Y-88211009D01*
X107325238Y-88211009D02*
X107372857Y-88163390D01*
X107372857Y-88163390D02*
X107468095Y-88115771D01*
X107468095Y-88115771D02*
X107706190Y-88115771D01*
X107706190Y-88115771D02*
X107801428Y-88163390D01*
X107801428Y-88163390D02*
X107849047Y-88211009D01*
X107849047Y-88211009D02*
X107896666Y-88306247D01*
X107896666Y-88306247D02*
X107896666Y-88544342D01*
X107896666Y-88544342D02*
X107849047Y-88639580D01*
X107849047Y-88639580D02*
X107801428Y-88687200D01*
X107801428Y-88687200D02*
X107706190Y-88734819D01*
X107706190Y-88734819D02*
X107468095Y-88734819D01*
X107468095Y-88734819D02*
X107372857Y-88687200D01*
X107372857Y-88687200D02*
X107325238Y-88639580D01*
X106896666Y-79934819D02*
X106896666Y-80649104D01*
X106896666Y-80649104D02*
X106849047Y-80791961D01*
X106849047Y-80791961D02*
X106753809Y-80887200D01*
X106753809Y-80887200D02*
X106610952Y-80934819D01*
X106610952Y-80934819D02*
X106515714Y-80934819D01*
X107801428Y-80268152D02*
X107801428Y-80934819D01*
X107563333Y-79887200D02*
X107325238Y-80601485D01*
X107325238Y-80601485D02*
X107944285Y-80601485D01*
X106896666Y-72134819D02*
X106896666Y-72849104D01*
X106896666Y-72849104D02*
X106849047Y-72991961D01*
X106849047Y-72991961D02*
X106753809Y-73087200D01*
X106753809Y-73087200D02*
X106610952Y-73134819D01*
X106610952Y-73134819D02*
X106515714Y-73134819D01*
X107277619Y-72134819D02*
X107896666Y-72134819D01*
X107896666Y-72134819D02*
X107563333Y-72515771D01*
X107563333Y-72515771D02*
X107706190Y-72515771D01*
X107706190Y-72515771D02*
X107801428Y-72563390D01*
X107801428Y-72563390D02*
X107849047Y-72611009D01*
X107849047Y-72611009D02*
X107896666Y-72706247D01*
X107896666Y-72706247D02*
X107896666Y-72944342D01*
X107896666Y-72944342D02*
X107849047Y-73039580D01*
X107849047Y-73039580D02*
X107801428Y-73087200D01*
X107801428Y-73087200D02*
X107706190Y-73134819D01*
X107706190Y-73134819D02*
X107420476Y-73134819D01*
X107420476Y-73134819D02*
X107325238Y-73087200D01*
X107325238Y-73087200D02*
X107277619Y-73039580D01*
X106896666Y-64334819D02*
X106896666Y-65049104D01*
X106896666Y-65049104D02*
X106849047Y-65191961D01*
X106849047Y-65191961D02*
X106753809Y-65287200D01*
X106753809Y-65287200D02*
X106610952Y-65334819D01*
X106610952Y-65334819D02*
X106515714Y-65334819D01*
X107325238Y-64430057D02*
X107372857Y-64382438D01*
X107372857Y-64382438D02*
X107468095Y-64334819D01*
X107468095Y-64334819D02*
X107706190Y-64334819D01*
X107706190Y-64334819D02*
X107801428Y-64382438D01*
X107801428Y-64382438D02*
X107849047Y-64430057D01*
X107849047Y-64430057D02*
X107896666Y-64525295D01*
X107896666Y-64525295D02*
X107896666Y-64620533D01*
X107896666Y-64620533D02*
X107849047Y-64763390D01*
X107849047Y-64763390D02*
X107277619Y-65334819D01*
X107277619Y-65334819D02*
X107896666Y-65334819D01*
X106896666Y-56534819D02*
X106896666Y-57249104D01*
X106896666Y-57249104D02*
X106849047Y-57391961D01*
X106849047Y-57391961D02*
X106753809Y-57487200D01*
X106753809Y-57487200D02*
X106610952Y-57534819D01*
X106610952Y-57534819D02*
X106515714Y-57534819D01*
X107896666Y-57534819D02*
X107325238Y-57534819D01*
X107610952Y-57534819D02*
X107610952Y-56534819D01*
X107610952Y-56534819D02*
X107515714Y-56677676D01*
X107515714Y-56677676D02*
X107420476Y-56772914D01*
X107420476Y-56772914D02*
X107325238Y-56820533D01*
D11*
%TO.C,J8*%
X126730000Y-92670000D02*
X116510000Y-92670000D01*
X126730000Y-92670000D02*
X126730000Y-95330000D01*
X116510000Y-92670000D02*
X116510000Y-95330000D01*
X129330000Y-94000000D02*
X129330000Y-95330000D01*
X129330000Y-95330000D02*
X128000000Y-95330000D01*
X126730000Y-95330000D02*
X116510000Y-95330000D01*
%TO.C,J7*%
X134260000Y-85180000D02*
X144660000Y-85180000D01*
X134260000Y-88200000D02*
X144660000Y-88200000D01*
X134260000Y-93100000D02*
X144660000Y-93100000D01*
X134260000Y-94600000D02*
X144660000Y-94600000D01*
X134260000Y-95220000D02*
X134260000Y-85180000D01*
X136620000Y-95220000D02*
X134260000Y-95220000D01*
X144660000Y-85180000D02*
X144660000Y-95220000D01*
X144660000Y-95220000D02*
X137220000Y-95220000D01*
X137360000Y-95830000D02*
X136480000Y-95830000D01*
X136920000Y-95220000D01*
X137360000Y-95830000D01*
G36*
X137360000Y-95830000D02*
G01*
X136480000Y-95830000D01*
X136920000Y-95220000D01*
X137360000Y-95830000D01*
G37*
%TO.C,J5*%
X101880000Y-89080000D02*
X101880000Y-90330000D01*
X102180000Y-91630000D02*
X102930000Y-91630000D01*
X102930000Y-91630000D02*
X102930000Y-94580000D01*
X102930000Y-94580000D02*
X107230000Y-94580000D01*
X103130000Y-89080000D02*
X101880000Y-89080000D01*
X111530000Y-91630000D02*
X111530000Y-94580000D01*
X111530000Y-94580000D02*
X107230000Y-94580000D01*
X112280000Y-91630000D02*
X111530000Y-91630000D01*
X102170000Y-89370000D02*
X112290000Y-89370000D01*
X112290000Y-95340000D01*
X102170000Y-95340000D01*
X102170000Y-89370000D01*
X102180000Y-89380000D02*
X103980000Y-89380000D01*
X103980000Y-90130000D01*
X102180000Y-90130000D01*
X102180000Y-89380000D01*
X105480000Y-89380000D02*
X108980000Y-89380000D01*
X108980000Y-90130000D01*
X105480000Y-90130000D01*
X105480000Y-89380000D01*
X110480000Y-89380000D02*
X112280000Y-89380000D01*
X112280000Y-90130000D01*
X110480000Y-90130000D01*
X110480000Y-89380000D01*
%TO.C,J4*%
X101880000Y-81280000D02*
X101880000Y-82530000D01*
X102180000Y-83830000D02*
X102930000Y-83830000D01*
X102930000Y-83830000D02*
X102930000Y-86780000D01*
X102930000Y-86780000D02*
X107230000Y-86780000D01*
X103130000Y-81280000D02*
X101880000Y-81280000D01*
X111530000Y-83830000D02*
X111530000Y-86780000D01*
X111530000Y-86780000D02*
X107230000Y-86780000D01*
X112280000Y-83830000D02*
X111530000Y-83830000D01*
X102170000Y-81570000D02*
X112290000Y-81570000D01*
X112290000Y-87540000D01*
X102170000Y-87540000D01*
X102170000Y-81570000D01*
X102180000Y-81580000D02*
X103980000Y-81580000D01*
X103980000Y-82330000D01*
X102180000Y-82330000D01*
X102180000Y-81580000D01*
X105480000Y-81580000D02*
X108980000Y-81580000D01*
X108980000Y-82330000D01*
X105480000Y-82330000D01*
X105480000Y-81580000D01*
X110480000Y-81580000D02*
X112280000Y-81580000D01*
X112280000Y-82330000D01*
X110480000Y-82330000D01*
X110480000Y-81580000D01*
%TO.C,J3*%
X101880000Y-73480000D02*
X101880000Y-74730000D01*
X102180000Y-76030000D02*
X102930000Y-76030000D01*
X102930000Y-76030000D02*
X102930000Y-78980000D01*
X102930000Y-78980000D02*
X107230000Y-78980000D01*
X103130000Y-73480000D02*
X101880000Y-73480000D01*
X111530000Y-76030000D02*
X111530000Y-78980000D01*
X111530000Y-78980000D02*
X107230000Y-78980000D01*
X112280000Y-76030000D02*
X111530000Y-76030000D01*
X102170000Y-73770000D02*
X112290000Y-73770000D01*
X112290000Y-79740000D01*
X102170000Y-79740000D01*
X102170000Y-73770000D01*
X102180000Y-73780000D02*
X103980000Y-73780000D01*
X103980000Y-74530000D01*
X102180000Y-74530000D01*
X102180000Y-73780000D01*
X105480000Y-73780000D02*
X108980000Y-73780000D01*
X108980000Y-74530000D01*
X105480000Y-74530000D01*
X105480000Y-73780000D01*
X110480000Y-73780000D02*
X112280000Y-73780000D01*
X112280000Y-74530000D01*
X110480000Y-74530000D01*
X110480000Y-73780000D01*
%TO.C,J2*%
X101880000Y-65680000D02*
X101880000Y-66930000D01*
X102180000Y-68230000D02*
X102930000Y-68230000D01*
X102930000Y-68230000D02*
X102930000Y-71180000D01*
X102930000Y-71180000D02*
X107230000Y-71180000D01*
X103130000Y-65680000D02*
X101880000Y-65680000D01*
X111530000Y-68230000D02*
X111530000Y-71180000D01*
X111530000Y-71180000D02*
X107230000Y-71180000D01*
X112280000Y-68230000D02*
X111530000Y-68230000D01*
X102170000Y-65970000D02*
X112290000Y-65970000D01*
X112290000Y-71940000D01*
X102170000Y-71940000D01*
X102170000Y-65970000D01*
X102180000Y-65980000D02*
X103980000Y-65980000D01*
X103980000Y-66730000D01*
X102180000Y-66730000D01*
X102180000Y-65980000D01*
X105480000Y-65980000D02*
X108980000Y-65980000D01*
X108980000Y-66730000D01*
X105480000Y-66730000D01*
X105480000Y-65980000D01*
X110480000Y-65980000D02*
X112280000Y-65980000D01*
X112280000Y-66730000D01*
X110480000Y-66730000D01*
X110480000Y-65980000D01*
%TO.C,J1*%
X101880000Y-57880000D02*
X101880000Y-59130000D01*
X102180000Y-60430000D02*
X102930000Y-60430000D01*
X102930000Y-60430000D02*
X102930000Y-63380000D01*
X102930000Y-63380000D02*
X107230000Y-63380000D01*
X103130000Y-57880000D02*
X101880000Y-57880000D01*
X111530000Y-60430000D02*
X111530000Y-63380000D01*
X111530000Y-63380000D02*
X107230000Y-63380000D01*
X112280000Y-60430000D02*
X111530000Y-60430000D01*
X102170000Y-58170000D02*
X112290000Y-58170000D01*
X112290000Y-64140000D01*
X102170000Y-64140000D01*
X102170000Y-58170000D01*
X102180000Y-58180000D02*
X103980000Y-58180000D01*
X103980000Y-58930000D01*
X102180000Y-58930000D01*
X102180000Y-58180000D01*
X105480000Y-58180000D02*
X108980000Y-58180000D01*
X108980000Y-58930000D01*
X105480000Y-58930000D01*
X105480000Y-58180000D01*
X110480000Y-58180000D02*
X112280000Y-58180000D01*
X112280000Y-58930000D01*
X110480000Y-58930000D01*
X110480000Y-58180000D01*
%TO.C,HiLetgo-AMS1117-DC-DC-Stepdown-Module-3.3v1*%
X134120000Y-73620000D02*
X135500000Y-73620000D01*
X134120000Y-75000000D02*
X134120000Y-73620000D01*
X134120000Y-76270000D02*
X134120000Y-81460000D01*
X134120000Y-76270000D02*
X136880000Y-76270000D01*
X134120000Y-81460000D02*
X136880000Y-81460000D01*
X136880000Y-76270000D02*
X136880000Y-81460000D01*
%TD*%
M02*
